<svg xmlns="http://www.w3.org/2000/svg" viewBox="0 0 900 520">
<defs>
 <linearGradient id="bg" x1="0" y1="0" x2="1" y2="1"><stop stop-color="#07141f"/><stop offset=".6" stop-color="#0a2430"/><stop offset="1" stop-color="#071018"/></linearGradient>
 <radialGradient id="glow"><stop stop-color="#2dc7ff" stop-opacity=".32"/><stop offset="1" stop-color="#2dc7ff" stop-opacity="0"/></radialGradient>
 <linearGradient id="fur" x1="0" y1="0" x2="1" y2="1"><stop stop-color="#cfd8d6"/><stop offset=".45" stop-color="#8f9e9b"/><stop offset="1" stop-color="#4c5f60"/></linearGradient>
 <filter id="b"><feGaussianBlur stdDeviation="24"/></filter>
</defs>
<rect width="900" height="520" fill="url(#bg)"/>
<circle cx="720" cy="140" r="190" fill="url(#glow)" filter="url(#b)"/>
<g opacity=".48"><circle cx="760" cy="82" r="24" fill="#4ab9c8"/><circle cx="818" cy="128" r="36" fill="#2a7180"/><circle cx="680" cy="84" r="30" fill="#3e8392"/></g>
<g transform="translate(485 38)">
 <path d="M74 145 24 46 132 100" fill="#7c8c88"/><path d="M228 145 281 48 174 100" fill="#71827e"/>
 <path d="M44 206c0-111 75-172 160-172 91 0 165 70 165 177 0 119-82 214-176 214C104 425 44 327 44 206z" fill="url(#fur)"/>
 <path d="M55 200c20-86 88-135 153-135 73 0 131 43 154 120-30-25-72-38-111-35-66 4-122 31-196 50z" fill="#d7dfdd" opacity=".58"/>
 <ellipse cx="128" cy="210" rx="31" ry="35" fill="#0b1820"/><ellipse cx="286" cy="210" rx="31" ry="35" fill="#0b1820"/>
 <ellipse cx="128" cy="210" rx="18" ry="24" fill="#35d7f3"/><ellipse cx="286" cy="210" rx="18" ry="24" fill="#35d7f3"/>
 <ellipse cx="130" cy="204" rx="5" ry="9" fill="#d9fbff"/><ellipse cx="288" cy="204" rx="5" ry="9" fill="#d9fbff"/>
 <path d="M184 268c20 14 39 14 58 0-4 25-14 38-29 38s-25-13-29-38z" fill="#c18f8c"/>
 <path d="M106 282 18 266M105 300 12 304M311 282l88-16M312 300l92 4" stroke="#d7dfdd" stroke-width="4" stroke-linecap="round" opacity=".8"/>
</g>
<path d="M0 426c182-72 312-64 458-8 155 59 298 55 442-10v112H0z" fill="#061018" opacity=".82"/>
</svg>